<svg width="336" height="104" viewBox="0 0 336 104" fill="none" xmlns="http://www.w3.org/2000/svg">
<path d="M2.09688 5.42188C1.2375 5.42188 0.807816 5.07031 0.807816 4.36719V2.44531C0.807816 1.74219 1.2375 1.39062 2.09688 1.39062H26.8938C27.7531 1.39062 28.1828 1.74219 28.1828 2.44531V4.36719C28.1828 5.07031 27.7531 5.42188 26.8938 5.42188H16.7453V33.7109C16.7453 34.5703 16.3547 35 15.5734 35H13.4172C12.6359 35 12.2453 34.5703 12.2453 33.7109V5.42188H2.09688ZM38.9828 35C38.2016 35 37.8109 34.5703 37.8109 33.7109V2.67969C37.8109 1.82031 38.2016 1.39062 38.9828 1.39062H41.1391C41.9203 1.39062 42.3109 1.82031 42.3109 2.67969V15.5938H58.6703V2.67969C58.6703 1.82031 59.0609 1.39062 59.8422 1.39062H61.9984C62.7797 1.39062 63.1703 1.82031 63.1703 2.67969V33.7109C63.1703 34.5703 62.7797 35 61.9984 35H59.8422C59.0609 35 58.6703 34.5703 58.6703 33.7109V19.4375H42.3109V33.7109C42.3109 34.5703 41.9203 35 41.1391 35H38.9828ZM77.1109 35C76.3297 35 75.9391 34.5703 75.9391 33.7109V2.67969C75.9391 1.82031 76.3297 1.39062 77.1109 1.39062H97.6188C98.4781 1.39062 98.9078 1.74219 98.9078 2.44531V4.17969C98.9078 4.88281 98.4781 5.23438 97.6188 5.23438H80.4391V15.6406H96.2125C97.0719 15.6406 97.5016 15.9922 97.5016 16.6953V18.4297C97.5016 19.1328 97.0719 19.4844 96.2125 19.4844H80.4391V31.1562H98.3219C99.1813 31.1562 99.6109 31.5078 99.6109 32.2109V33.9453C99.6109 34.6484 99.1813 35 98.3219 35H77.1109ZM110.505 22.1797V2.67969C110.505 1.82031 110.895 1.39062 111.677 1.39062H113.833C114.614 1.39062 115.005 1.82031 115.005 2.67969V21.4766C115.005 25.8516 115.622 28.7109 116.856 30.0547C118.106 31.3828 120.138 32.0469 122.95 32.0469C125.763 32.0469 127.786 31.3828 129.02 30.0547C130.27 28.7109 130.895 25.8516 130.895 21.4766V2.67969C130.895 1.82031 131.286 1.39062 132.067 1.39062H134.223C135.005 1.39062 135.395 1.82031 135.395 2.67969V22.1797C135.395 27.1328 134.255 30.625 131.973 32.6562C129.708 34.6875 126.7 35.7031 122.95 35.7031C119.2 35.7031 116.184 34.6875 113.903 32.6562C111.638 30.625 110.505 27.1328 110.505 22.1797ZM149.336 35C148.555 35 148.164 34.5703 148.164 33.7109V2.67969C148.164 1.82031 148.555 1.39062 149.336 1.39062H154.328C154.922 1.39062 155.367 1.85938 155.664 2.79688L162.367 23.8203C163.055 25.9766 163.461 27.2812 163.586 27.7344C163.711 28.1719 163.891 28.9844 164.125 30.1719H164.266C164.5 28.9844 164.68 28.1719 164.805 27.7344C164.93 27.2812 165.336 25.9766 166.023 23.8203L172.727 2.79688C173.023 1.85938 173.469 1.39062 174.062 1.39062H179.055C179.836 1.39062 180.227 1.82031 180.227 2.67969V33.7109C180.227 34.5703 179.836 35 179.055 35H176.898C176.117 35 175.727 34.5703 175.727 33.7109V9.125C175.727 8.5 175.742 7.875 175.773 7.25H175.68L167.031 33.5703C166.719 34.5234 166.203 35 165.484 35H162.906C162.188 35 161.672 34.5234 161.359 33.5703L152.711 7.25H152.617C152.648 7.875 152.664 8.5 152.664 9.125V33.7109C152.664 34.5703 152.273 35 151.492 35H149.336ZM191.308 35C190.495 35 190.284 34.4844 190.675 33.4531L202.347 2.82031C202.706 1.86719 203.222 1.39062 203.894 1.39062H207.175C207.847 1.39062 208.363 1.86719 208.722 2.82031L220.394 33.4531C220.784 34.4844 220.573 35 219.761 35H217.37C216.542 35 215.98 34.6172 215.683 33.8516L212.753 26.0938H198.316L195.386 33.8516C195.089 34.6172 194.527 35 193.698 35H191.308ZM199.792 22.25H211.277L207.691 12.875C207.363 12 207.034 11.0312 206.706 9.96875C206.394 8.90625 206.019 7.39844 205.581 5.44531H205.488C205.05 7.39844 204.667 8.90625 204.339 9.96875C204.027 11.0312 203.706 12 203.378 12.875L199.792 22.25ZM230.842 35C230.061 35 229.67 34.5703 229.67 33.7109V2.67969C229.67 1.82031 230.061 1.39062 230.842 1.39062H242.163C246.678 1.39062 249.944 2.23438 251.959 3.92188C253.991 5.60938 255.006 7.83594 255.006 10.6016C255.006 13.0391 254.186 15.0859 252.545 16.7422C250.92 18.3984 248.6 19.3516 245.584 19.6016V19.6484C247.178 20.8359 248.233 21.7422 248.748 22.3672C249.264 22.9766 249.842 23.8047 250.483 24.8516L255.78 33.4531C256.42 34.4844 256.28 35 255.358 35H252.686C251.952 35 251.405 34.6953 251.045 34.0859L246.17 25.7188C245.467 24.5156 244.459 23.3359 243.147 22.1797C241.834 21.0234 240.202 20.4453 238.248 20.4453H234.17V33.7109C234.17 34.5703 233.78 35 232.998 35H230.842ZM234.17 16.6016H240.944C243.991 16.6016 246.334 16.2031 247.975 15.4062C249.616 14.5938 250.436 12.8984 250.436 10.3203C250.436 8.35156 249.686 7.01562 248.186 6.3125C246.686 5.59375 244.647 5.23438 242.069 5.23438H234.17V16.6016ZM265.314 18.1953C265.314 12.7266 266.658 8.44531 269.345 5.35156C272.048 2.24219 275.939 0.6875 281.017 0.6875C286.095 0.6875 289.978 2.24219 292.666 5.35156C295.369 8.44531 296.72 12.7266 296.72 18.1953C296.72 23.6641 295.369 27.9531 292.666 31.0625C289.978 34.1562 286.095 35.7031 281.017 35.7031C275.939 35.7031 272.048 34.1562 269.345 31.0625C266.658 27.9531 265.314 23.6641 265.314 18.1953ZM270.119 18.1953C270.119 22.5703 271.017 25.9766 272.814 28.4141C274.611 30.8359 277.345 32.0469 281.017 32.0469C284.689 32.0469 287.423 30.8359 289.22 28.4141C291.017 25.9766 291.916 22.5703 291.916 18.1953C291.916 13.8203 291.017 10.4219 289.22 8C287.423 5.5625 284.689 4.34375 281.017 4.34375C277.345 4.34375 274.611 5.5625 272.814 8C271.017 10.4219 270.119 13.8203 270.119 18.1953ZM305.341 2.9375C304.95 1.90625 305.161 1.39062 305.973 1.39062H308.364C309.208 1.39062 309.77 1.77344 310.052 2.53906L317.669 23.5156C317.997 24.4375 318.403 25.6797 318.888 27.2422C319.388 28.7891 319.723 30.0234 319.895 30.9453H319.989C320.161 30.0234 320.489 28.7891 320.973 27.2422C321.473 25.6797 321.888 24.4375 322.216 23.5156L329.833 2.53906C330.114 1.77344 330.677 1.39062 331.52 1.39062H333.911C334.723 1.39062 334.934 1.90625 334.544 2.9375L323.13 33.5703C322.77 34.5234 322.255 35 321.583 35H318.302C317.63 35 317.114 34.5234 316.755 33.5703L305.341 2.9375ZM120.466 104C119.684 104 119.294 103.57 119.294 102.711V71.6797C119.294 70.8203 119.684 70.3906 120.466 70.3906H129.114C135.739 70.3906 140.341 71.8594 142.919 74.7969C145.512 77.7188 146.809 81.8359 146.809 87.1484C146.809 92.4609 145.512 96.6016 142.919 99.5703C140.341 102.523 135.739 104 129.114 104H120.466ZM123.794 100.156H128.903C134.059 100.156 137.528 99.0625 139.309 96.875C141.106 94.6875 142.005 91.4453 142.005 87.1484C142.005 82.8516 141.106 79.6172 139.309 77.4453C137.528 75.2734 134.059 74.1875 128.903 74.1875H123.794V100.156ZM158.922 104C158.141 104 157.75 103.57 157.75 102.711V71.6797C157.75 70.8203 158.141 70.3906 158.922 70.3906H179.43C180.289 70.3906 180.719 70.7422 180.719 71.4453V73.1797C180.719 73.8828 180.289 74.2344 179.43 74.2344H162.25V84.6406H178.023C178.883 84.6406 179.312 84.9922 179.312 85.6953V87.4297C179.312 88.1328 178.883 88.4844 178.023 88.4844H162.25V100.156H180.133C180.992 100.156 181.422 100.508 181.422 101.211V102.945C181.422 103.648 180.992 104 180.133 104H158.922ZM189.995 71.9375C189.605 70.9062 189.816 70.3906 190.628 70.3906H193.019C193.862 70.3906 194.425 70.7734 194.706 71.5391L202.323 92.5156C202.652 93.4375 203.058 94.6797 203.542 96.2422C204.042 97.7891 204.378 99.0234 204.55 99.9453H204.644C204.816 99.0234 205.144 97.7891 205.628 96.2422C206.128 94.6797 206.542 93.4375 206.87 92.5156L214.487 71.5391C214.769 70.7734 215.331 70.3906 216.175 70.3906H218.566C219.378 70.3906 219.589 70.9062 219.198 71.9375L207.784 102.57C207.425 103.523 206.909 104 206.237 104H202.956C202.284 104 201.769 103.523 201.409 102.57L189.995 71.9375Z" fill="black"/>
</svg>
